<svg xmlns='http://www.w3.org/2000/svg' height='112' width='112'>
    <rect width="112" height="112" fill="#2e2e2e" rx="10" />
    <g fill="none" stroke-linecap='round' stroke-linejoin='round' stroke-width='1.2' stroke="white"
       transform="scale(1.8) translate(20,10)">
        <path d="M7 9L12 12.5L17 9" />
        <path
                d="M2 17V7C2 5.89543 2.89543 5 4 5H20C21.1046 5 22 5.89543 22 7V17C22 18.1046 21.1046 19 20 19H4C2.89543 19 2 18.1046 2 17Z" />
    </g>
    <path fill="white" transform="translate(26, 85) scale(.02)"
          d="M95 -0L95 -714 515 -714 515 -634 185 -634 185 -413 496 -413 496 -333 185 -333 185 -80 515 -80 515 -0 95 -0 95 -0M665 -230L665 -310 965 -310 965 -230 665 -230 665 -230M1015 -0L1015 -714 1144 -714 1263 -295 1266 -295 1385 -714 1515 -714 1515 -0 1430 -0 1430 -387Q1430 -407 1430.5 -427 1431 -447 1431.5 -467.5 1432 -488 1433 -508 1434 -528 1435 -548 1436 -568 1438 -587 1440 -606 1442 -624L1438 -624 1306 -178 1223 -178 1090 -625 1086 -625Q1088 -610 1090 -592 1092 -574 1093.5 -554 1095 -534 1096.5 -512.5 1098 -491 1098.5 -469.5 1099 -448 1099.5 -427 1100 -406 1100 -387L1100 -0 1015 -0 1015 -0M1761 10Q1682 10 1633.5 -29 1585 -68 1585 -147 1585 -205 1613 -243.5 1641 -282 1695.5 -301.5 1750 -321 1828 -323L1943 -326 1943 -348Q1943 -420 1907 -446.5 1871 -473 1810 -473 1767 -473 1728 -462 1689 -451 1654 -431L1623 -499Q1661 -518 1707.5 -532 1754 -546 1815 -546 1916 -546 1970.5 -500.5 2025 -455 2025 -359L2025 -0 1953 -0 1943 -74 1939 -74Q1917 -46 1890.5 -27.5 1864 -9 1832 0.5 1800 10 1761 10L1761 10M1776 -63Q1821 -63 1859 -79.5 1897 -96 1920 -129.5 1943 -163 1943 -214L1943 -262 1847 -259Q1783 -257 1744 -243.5 1705 -230 1687.5 -206.5 1670 -183 1670 -150 1670 -104 1699 -83.5 1728 -63 1776 -63L1776 -63M2105 -0L2105 -60 2296 -75 2296 -461 2121 -474 2121 -536 2386 -536 2386 -75 2565 -60 2565 -0 2105 -0 2105 -0M2332 -633Q2306 -633 2287.5 -649 2269 -665 2269 -696 2269 -729 2287.5 -744.5 2306 -760 2332 -760 2358 -760 2376.5 -744.5 2395 -729 2395 -696 2395 -665 2376.5 -649 2358 -633 2332 -633L2332 -633M2645 -0L2645 -60 2841 -75 2841 -685 2651 -698 2651 -760 2931 -760 2931 -75 3105 -60 3105 -0 2645 -0 2645 -0" />
</svg>