<svg xmlns='http://www.w3.org/2000/svg' xmlns:xlink="http://www.w3.org/1999/xlink" height='152' width='416'>
    <style>
        .btn .foreground {
        transition: transform .3s;
        }

        .btn:hover .foreground {
        transform: translate(0, -10px);
        }
    </style>
    <a target="_blank" xlink:href="https://t.me/notmynamae">
        <g transform="translate(20, 20)" class="btn">
            <rect width="112" height="112" fill="#888" opacity=".50" rx="10" />
            <g class="foreground">
                <rect width="112" height="112" fill="#2e2e2e" rx="10" />
                <path d="M21 5L2 12.5L9 13.5M21 5L18.5 20L9 13.5M21 5L9 13.5M9 13.5V19L12.2488 15.7229" fill="none"
                      stroke-linecap='round' stroke-linejoin='round' stroke-width='1.2' stroke="white"
                      transform="scale(1.8) translate(20,10)" />
                <path fill="white" transform="translate(14, 85) scale(.02)"
                      d="M255 -0L255 -634 45 -634 45 -714 555 -714 555 -634 345 -634 345 -0 255 -0 255 -0M892 10Q806 10 744 -22 682 -54 648.5 -115.5 615 -177 615 -266 615 -354 647 -416.5 679 -479 736 -512.5 793 -546 869 -546 939 -546 989.5 -515 1040 -484 1067.5 -427.5 1095 -371 1095 -292L1095 -251 706 -251Q708 -181 732.5 -140 757 -99 799.5 -81.5 842 -64 898 -64 942 -64 985 -76 1028 -88 1071 -108L1071 -28Q1025 -8 979 1 933 10 892 10L892 10M1005 -323Q1003 -370 987 -403.5 971 -437 941.5 -455 912 -473 869 -473 802 -473 760.5 -432.5 719 -392 708 -323L1005 -323 1005 -323M1175 -0L1175 -60 1371 -75 1371 -685 1181 -698 1181 -760 1461 -760 1461 -75 1635 -60 1635 -0 1175 -0 1175 -0M1972 10Q1886 10 1824 -22 1762 -54 1728.5 -115.5 1695 -177 1695 -266 1695 -354 1727 -416.5 1759 -479 1816 -512.5 1873 -546 1949 -546 2019 -546 2069.5 -515 2120 -484 2147.5 -427.5 2175 -371 2175 -292L2175 -251 1786 -251Q1788 -181 1812.5 -140 1837 -99 1879.5 -81.5 1922 -64 1978 -64 2022 -64 2065 -76 2108 -88 2151 -108L2151 -28Q2105 -8 2059 1 2013 10 1972 10L1972 10M2085 -323Q2083 -370 2067 -403.5 2051 -437 2021.5 -455 1992 -473 1949 -473 1882 -473 1840.5 -432.5 1799 -392 1788 -323L2085 -323 2085 -323M2451 245Q2396 245 2347.5 234.5 2299 224 2258 207L2258 127Q2298 150 2350.5 161.5 2403 173 2448 173 2539 173 2575 130.5 2611 88 2611 14L2611 -5Q2611 -17 2611.5 -28 2612 -39 2614 -62L2610 -62Q2582 -21 2544.5 -5.5 2507 10 2454 10 2348 10 2289 -62.5 2230 -135 2230 -265 2230 -396 2288.5 -471 2347 -546 2449 -546 2503 -546 2540 -528.5 2577 -511 2606 -470L2611 -470 2623 -536 2695 -536 2695 14Q2695 90 2669 141.5 2643 193 2589 219 2535 245 2451 245L2451 245M2471 -63Q2504 -63 2530.5 -73.5 2557 -84 2575.5 -106.5 2594 -129 2604 -163.5 2614 -198 2614 -246L2614 -267Q2614 -340 2596.5 -385.5 2579 -431 2546 -452 2513 -473 2468 -473 2392 -473 2357 -419.5 2322 -366 2322 -268 2322 -168 2358.5 -115.5 2395 -63 2471 -63L2471 -63M2757 -0L2757 -60 2920 -75 2920 -461 2773 -474 2773 -536 2992 -536 3004 -438 3008 -438Q3036 -491 3069.5 -518.5 3103 -546 3158 -546 3192 -546 3218.5 -540 3245 -534 3267 -524L3243 -445Q3227 -454 3205 -460.5 3183 -467 3158 -467 3115 -467 3082 -440 3049 -413 3030 -368 3011 -323 3011 -269L3011 -75 3167 -60 3167 -0 2757 -0 2757 -0M3513 10Q3434 10 3385.5 -29 3337 -68 3337 -147 3337 -205 3365 -243.5 3393 -282 3447.5 -301.5 3502 -321 3580 -323L3695 -326 3695 -348Q3695 -420 3659 -446.5 3623 -473 3562 -473 3519 -473 3480 -462 3441 -451 3406 -431L3375 -499Q3413 -518 3459.5 -532 3506 -546 3567 -546 3668 -546 3722.5 -500.5 3777 -455 3777 -359L3777 -0 3705 -0 3695 -74 3691 -74Q3669 -46 3642.5 -27.5 3616 -9 3584 0.5 3552 10 3513 10L3513 10M3528 -63Q3573 -63 3611 -79.5 3649 -96 3672 -129.5 3695 -163 3695 -214L3695 -262 3599 -259Q3535 -257 3496 -243.5 3457 -230 3439.5 -206.5 3422 -183 3422 -150 3422 -104 3451 -83.5 3480 -63 3528 -63L3528 -63M3827 -0L3827 -536 3889 -536 3902 -477 3907 -477Q3920 -504 3935 -519 3950 -534 3967.5 -540 3985 -546 4006 -546 4047 -546 4069.5 -526.5 4092 -507 4104 -469L4107 -469Q4124 -506 4149.5 -526 4175 -546 4217 -546 4258 -546 4282.5 -525 4307 -504 4317.5 -461 4328 -418 4328 -350L4328 -0 4248 -0 4248 -335Q4248 -377 4244.5 -406.5 4241 -436 4230 -452 4219 -468 4194 -468 4170 -468 4153 -445.5 4136 -423 4127 -379 4118 -335 4118 -268L4118 -0 4038 -0 4038 -335Q4038 -378 4033 -407.5 4028 -437 4015.5 -452.5 4003 -468 3978 -468 3952 -468 3936 -443.5 3920 -419 3913.5 -374.5 3907 -330 3907 -268L3907 -0 3827 -0 3827 -0" />
            </g>
        </g>
    </a>
    <a target="_blank" xlink:href="https://naipofo.com">
        <g transform="translate(152, 20)" class="btn">
            <rect width="112" height="112" fill="#888" opacity=".50" rx="10" />
            <g class="foreground">
                <rect width="112" height="112" fill="#2e2e2e" rx="10" />
                <g fill="none" stroke-linecap='round' stroke-linejoin='round' stroke-width='1.2' stroke="white"
                   transform="scale(1.8) translate(20,10)">
                    <path
                            d="M12 22C17.5228 22 22 17.5228 22 12C22 6.47715 17.5228 2 12 2C6.47715 2 2 6.47715 2 12C2 17.5228 6.47715 22 12 22Z" />
                    <path d="M2.5 12.5L8 14.5L7 18L8 21" />
                    <path d="M17 20.5L16.5 18L14 17V13.5L17 12.5L21.5 13" />
                    <path d="M19 5.5L18.5 7L15 7.5V10.5L17.5 9.5H19.5L21.5 10.5" />
                    <path d="M2.5 10.5L5 8.5L7.5 8L9.5 5L8.5 3" />
                </g>
                <path fill="white" transform="translate(18, 85) scale(.02)"
                      d="M105 -0L25 -714 108 -714Q112 -675 115.5 -635.5 119 -596 123 -556.5 127 -517 130.5 -477.5 134 -438 138 -399 141 -368 144 -333 147 -298 149.5 -262.5 152 -227 154 -195 156 -163 157.5 -137.5 159 -112 159 -98L161 -98Q164 -115 169 -140.5 174 -166 180 -195 186 -224 192.5 -252.5 199 -281 204 -304L258 -536 344 -536 400 -302Q406 -276 413 -247.5 420 -219 426 -191.5 432 -164 436.5 -139.5 441 -115 444 -98L446 -98Q447 -112 448 -135.5 449 -159 450.5 -188.5 452 -218 454 -253 456 -288 459 -325.5 462 -363 465 -402 468 -433 470.5 -464.5 473 -496 476 -527 479 -558 481.5 -589 484 -620 486.5 -651.5 489 -683 492 -714L575 -714 503 -0 406 -0 327 -328Q320 -358 315 -382.5 310 -407 307 -424.5 304 -442 302 -450L300 -450Q299 -442 296.5 -425 294 -408 289 -383.5 284 -359 277 -328L201 -0 105 -0 105 -0M912 10Q826 10 764 -22 702 -54 668.5 -115.5 635 -177 635 -266 635 -354 667 -416.5 699 -479 756 -512.5 813 -546 889 -546 959 -546 1009.5 -515 1060 -484 1087.5 -427.5 1115 -371 1115 -292L1115 -251 726 -251Q728 -181 752.5 -140 777 -99 819.5 -81.5 862 -64 918 -64 962 -64 1005 -76 1048 -88 1091 -108L1091 -28Q1045 -8 999 1 953 10 912 10L912 10M1025 -323Q1023 -370 1007 -403.5 991 -437 961.5 -455 932 -473 889 -473 822 -473 780.5 -432.5 739 -392 728 -323L1025 -323 1025 -323M1444 10Q1385 10 1344.5 -13.5 1304 -37 1281 -68L1275 -68 1267 -0 1195 -0 1195 -760 1282 -760 1282 -576Q1282 -548 1281.5 -521 1281 -494 1278 -466L1282 -466Q1303 -498 1343 -522 1383 -546 1444 -546 1492 -546 1532 -528.5 1572 -511 1600.5 -476 1629 -441 1644.5 -389 1660 -337 1660 -269 1660 -200 1644.5 -148 1629 -96 1600 -60.5 1571 -25 1531.5 -7.5 1492 10 1444 10L1444 10M1427 -63Q1500 -63 1534 -116 1568 -169 1568 -269 1568 -367 1534 -420 1500 -473 1426 -473 1357 -473 1319.5 -420.5 1282 -368 1282 -271 1282 -170 1317.5 -116.5 1353 -63 1427 -63L1427 -63M1939 10Q1889 10 1843.5 1 1798 -8 1765 -24L1765 -107Q1800 -91 1842.5 -77.5 1885 -64 1944 -64 2010 -64 2037.5 -84.5 2065 -105 2065 -144 2065 -165 2055.5 -178.5 2046 -192 2019 -206 1992 -220 1940 -242 1888 -265 1851 -285 1814 -305 1794 -332.5 1774 -360 1774 -403 1774 -451 1798.5 -482.5 1823 -514 1869.5 -530 1916 -546 1980 -546 2024 -546 2064 -538 2104 -530 2147 -512L2120 -442Q2080 -459 2046.5 -465 2013 -471 1980 -471 1918 -471 1889.5 -455 1861 -439 1861 -405 1861 -383 1873.5 -368 1886 -353 1914.5 -339 1943 -325 1990 -305 2043 -283 2080 -264 2117 -245 2136 -218.5 2155 -192 2155 -146 2155 -95 2130.5 -60.5 2106 -26 2058 -8 2010 10 1939 10L1939 10M2235 -0L2235 -60 2426 -75 2426 -461 2251 -474 2251 -536 2516 -536 2516 -75 2695 -60 2695 -0 2235 -0 2235 -0M2462 -633Q2436 -633 2417.5 -649 2399 -665 2399 -696 2399 -729 2417.5 -744.5 2436 -760 2462 -760 2488 -760 2506.5 -744.5 2525 -729 2525 -696 2525 -665 2506.5 -649 2488 -633 2462 -633L2462 -633M3097 10Q3040 10 2995 -5 2950 -20 2923.5 -58 2897 -96 2897 -163L2897 -461 2751 -461 2751 -523 2897 -539 2915 -679 2987 -679 2987 -536 3196 -536 3196 -461 2987 -461 2987 -180Q2987 -140 2998.5 -114 3010 -88 3036 -75.5 3062 -63 3103 -63 3129 -63 3159 -68 3189 -73 3211 -78L3211 -6Q3187 -0 3158 5 3129 10 3097 10L3097 10M3548 10Q3462 10 3400 -22 3338 -54 3304.5 -115.5 3271 -177 3271 -266 3271 -354 3303 -416.5 3335 -479 3392 -512.5 3449 -546 3525 -546 3595 -546 3645.5 -515 3696 -484 3723.5 -427.5 3751 -371 3751 -292L3751 -251 3362 -251Q3364 -181 3388.5 -140 3413 -99 3455.5 -81.5 3498 -64 3554 -64 3598 -64 3641 -76 3684 -88 3727 -108L3727 -28Q3681 -8 3635 1 3589 10 3548 10L3548 10M3661 -323Q3659 -370 3643 -403.5 3627 -437 3597.5 -455 3568 -473 3525 -473 3458 -473 3416.5 -432.5 3375 -392 3364 -323L3661 -323 3661 -323" />
            </g>
        </g>
    </a>
    <a target="_blank" xlink:href="mailto:athenaheki@gmail.com">
        <g transform="translate(284, 20)" class="btn">
            <rect width="112" height="112" fill="#888" opacity=".50" rx="10" />
            <g class="foreground">
                <rect width="112" height="112" fill="#2e2e2e" rx="10" />
                <g fill="none" stroke-linecap='round' stroke-linejoin='round' stroke-width='1.2' stroke="white"
                   transform="scale(1.8) translate(20,10)">
                    <path d="M7 9L12 12.5L17 9" />
                    <path
                            d="M2 17V7C2 5.89543 2.89543 5 4 5H20C21.1046 5 22 5.89543 22 7V17C22 18.1046 21.1046 19 20 19H4C2.89543 19 2 18.1046 2 17Z" />
                </g>
                <path fill="white" transform="translate(26, 85) scale(.02)"
                      d="M95 -0L95 -714 515 -714 515 -634 185 -634 185 -413 496 -413 496 -333 185 -333 185 -80 515 -80 515 -0 95 -0 95 -0M665 -230L665 -310 965 -310 965 -230 665 -230 665 -230M1015 -0L1015 -714 1144 -714 1263 -295 1266 -295 1385 -714 1515 -714 1515 -0 1430 -0 1430 -387Q1430 -407 1430.5 -427 1431 -447 1431.5 -467.5 1432 -488 1433 -508 1434 -528 1435 -548 1436 -568 1438 -587 1440 -606 1442 -624L1438 -624 1306 -178 1223 -178 1090 -625 1086 -625Q1088 -610 1090 -592 1092 -574 1093.5 -554 1095 -534 1096.5 -512.5 1098 -491 1098.5 -469.5 1099 -448 1099.5 -427 1100 -406 1100 -387L1100 -0 1015 -0 1015 -0M1761 10Q1682 10 1633.5 -29 1585 -68 1585 -147 1585 -205 1613 -243.5 1641 -282 1695.5 -301.5 1750 -321 1828 -323L1943 -326 1943 -348Q1943 -420 1907 -446.5 1871 -473 1810 -473 1767 -473 1728 -462 1689 -451 1654 -431L1623 -499Q1661 -518 1707.5 -532 1754 -546 1815 -546 1916 -546 1970.5 -500.5 2025 -455 2025 -359L2025 -0 1953 -0 1943 -74 1939 -74Q1917 -46 1890.5 -27.5 1864 -9 1832 0.5 1800 10 1761 10L1761 10M1776 -63Q1821 -63 1859 -79.5 1897 -96 1920 -129.5 1943 -163 1943 -214L1943 -262 1847 -259Q1783 -257 1744 -243.5 1705 -230 1687.5 -206.5 1670 -183 1670 -150 1670 -104 1699 -83.5 1728 -63 1776 -63L1776 -63M2105 -0L2105 -60 2296 -75 2296 -461 2121 -474 2121 -536 2386 -536 2386 -75 2565 -60 2565 -0 2105 -0 2105 -0M2332 -633Q2306 -633 2287.5 -649 2269 -665 2269 -696 2269 -729 2287.5 -744.5 2306 -760 2332 -760 2358 -760 2376.5 -744.5 2395 -729 2395 -696 2395 -665 2376.5 -649 2358 -633 2332 -633L2332 -633M2645 -0L2645 -60 2841 -75 2841 -685 2651 -698 2651 -760 2931 -760 2931 -75 3105 -60 3105 -0 2645 -0 2645 -0" />
            </g>
        </g>
    </a>
</svg>