<svg xmlns='http://www.w3.org/2000/svg' height='112' width='132'>
    <rect width="112" height="112" fill="#2e2e2e" rx="10" />
    <path d="M21 5L2 12.5L9 13.5M21 5L18.5 20L9 13.5M21 5L9 13.5M9 13.5V19L12.2488 15.7229" fill="none"
          stroke-linecap='round' stroke-linejoin='round' stroke-width='1.2' stroke="white"
          transform="scale(1.8) translate(20,10)" />
    <path fill="white" transform="translate(14, 85) scale(.02)"
          d="M255 -0L255 -634 45 -634 45 -714 555 -714 555 -634 345 -634 345 -0 255 -0 255 -0M892 10Q806 10 744 -22 682 -54 648.5 -115.5 615 -177 615 -266 615 -354 647 -416.5 679 -479 736 -512.5 793 -546 869 -546 939 -546 989.5 -515 1040 -484 1067.5 -427.5 1095 -371 1095 -292L1095 -251 706 -251Q708 -181 732.5 -140 757 -99 799.5 -81.5 842 -64 898 -64 942 -64 985 -76 1028 -88 1071 -108L1071 -28Q1025 -8 979 1 933 10 892 10L892 10M1005 -323Q1003 -370 987 -403.5 971 -437 941.5 -455 912 -473 869 -473 802 -473 760.5 -432.5 719 -392 708 -323L1005 -323 1005 -323M1175 -0L1175 -60 1371 -75 1371 -685 1181 -698 1181 -760 1461 -760 1461 -75 1635 -60 1635 -0 1175 -0 1175 -0M1972 10Q1886 10 1824 -22 1762 -54 1728.5 -115.5 1695 -177 1695 -266 1695 -354 1727 -416.5 1759 -479 1816 -512.5 1873 -546 1949 -546 2019 -546 2069.5 -515 2120 -484 2147.5 -427.5 2175 -371 2175 -292L2175 -251 1786 -251Q1788 -181 1812.5 -140 1837 -99 1879.5 -81.5 1922 -64 1978 -64 2022 -64 2065 -76 2108 -88 2151 -108L2151 -28Q2105 -8 2059 1 2013 10 1972 10L1972 10M2085 -323Q2083 -370 2067 -403.5 2051 -437 2021.5 -455 1992 -473 1949 -473 1882 -473 1840.5 -432.5 1799 -392 1788 -323L2085 -323 2085 -323M2451 245Q2396 245 2347.5 234.5 2299 224 2258 207L2258 127Q2298 150 2350.5 161.5 2403 173 2448 173 2539 173 2575 130.5 2611 88 2611 14L2611 -5Q2611 -17 2611.5 -28 2612 -39 2614 -62L2610 -62Q2582 -21 2544.5 -5.5 2507 10 2454 10 2348 10 2289 -62.5 2230 -135 2230 -265 2230 -396 2288.5 -471 2347 -546 2449 -546 2503 -546 2540 -528.5 2577 -511 2606 -470L2611 -470 2623 -536 2695 -536 2695 14Q2695 90 2669 141.5 2643 193 2589 219 2535 245 2451 245L2451 245M2471 -63Q2504 -63 2530.5 -73.5 2557 -84 2575.5 -106.5 2594 -129 2604 -163.5 2614 -198 2614 -246L2614 -267Q2614 -340 2596.5 -385.5 2579 -431 2546 -452 2513 -473 2468 -473 2392 -473 2357 -419.5 2322 -366 2322 -268 2322 -168 2358.5 -115.5 2395 -63 2471 -63L2471 -63M2757 -0L2757 -60 2920 -75 2920 -461 2773 -474 2773 -536 2992 -536 3004 -438 3008 -438Q3036 -491 3069.5 -518.5 3103 -546 3158 -546 3192 -546 3218.5 -540 3245 -534 3267 -524L3243 -445Q3227 -454 3205 -460.5 3183 -467 3158 -467 3115 -467 3082 -440 3049 -413 3030 -368 3011 -323 3011 -269L3011 -75 3167 -60 3167 -0 2757 -0 2757 -0M3513 10Q3434 10 3385.5 -29 3337 -68 3337 -147 3337 -205 3365 -243.5 3393 -282 3447.5 -301.5 3502 -321 3580 -323L3695 -326 3695 -348Q3695 -420 3659 -446.5 3623 -473 3562 -473 3519 -473 3480 -462 3441 -451 3406 -431L3375 -499Q3413 -518 3459.5 -532 3506 -546 3567 -546 3668 -546 3722.5 -500.5 3777 -455 3777 -359L3777 -0 3705 -0 3695 -74 3691 -74Q3669 -46 3642.5 -27.5 3616 -9 3584 0.5 3552 10 3513 10L3513 10M3528 -63Q3573 -63 3611 -79.5 3649 -96 3672 -129.5 3695 -163 3695 -214L3695 -262 3599 -259Q3535 -257 3496 -243.5 3457 -230 3439.5 -206.5 3422 -183 3422 -150 3422 -104 3451 -83.5 3480 -63 3528 -63L3528 -63M3827 -0L3827 -536 3889 -536 3902 -477 3907 -477Q3920 -504 3935 -519 3950 -534 3967.5 -540 3985 -546 4006 -546 4047 -546 4069.5 -526.5 4092 -507 4104 -469L4107 -469Q4124 -506 4149.5 -526 4175 -546 4217 -546 4258 -546 4282.5 -525 4307 -504 4317.5 -461 4328 -418 4328 -350L4328 -0 4248 -0 4248 -335Q4248 -377 4244.5 -406.5 4241 -436 4230 -452 4219 -468 4194 -468 4170 -468 4153 -445.5 4136 -423 4127 -379 4118 -335 4118 -268L4118 -0 4038 -0 4038 -335Q4038 -378 4033 -407.5 4028 -437 4015.5 -452.5 4003 -468 3978 -468 3952 -468 3936 -443.5 3920 -419 3913.5 -374.5 3907 -330 3907 -268L3907 -0 3827 -0 3827 -0" />
</svg>