<svg xmlns='http://www.w3.org/2000/svg' height='112' width='132'>
    <rect width="112" height="112" fill="#2e2e2e" rx="10" />
    <g fill="none" stroke-linecap='round' stroke-linejoin='round' stroke-width='1.2' stroke="white"
       transform="scale(1.8) translate(20,10)">
        <path
                d="M12 22C17.5228 22 22 17.5228 22 12C22 6.47715 17.5228 2 12 2C6.47715 2 2 6.47715 2 12C2 17.5228 6.47715 22 12 22Z" />
        <path d="M2.5 12.5L8 14.5L7 18L8 21" />
        <path d="M17 20.5L16.5 18L14 17V13.5L17 12.5L21.5 13" />
        <path d="M19 5.5L18.5 7L15 7.5V10.5L17.5 9.5H19.5L21.5 10.5" />
        <path d="M2.5 10.5L5 8.5L7.5 8L9.5 5L8.5 3" />
    </g>
    <path fill="white" transform="translate(18, 85) scale(.02)"
          d="M105 -0L25 -714 108 -714Q112 -675 115.5 -635.5 119 -596 123 -556.5 127 -517 130.5 -477.5 134 -438 138 -399 141 -368 144 -333 147 -298 149.5 -262.5 152 -227 154 -195 156 -163 157.5 -137.5 159 -112 159 -98L161 -98Q164 -115 169 -140.5 174 -166 180 -195 186 -224 192.5 -252.5 199 -281 204 -304L258 -536 344 -536 400 -302Q406 -276 413 -247.5 420 -219 426 -191.5 432 -164 436.5 -139.5 441 -115 444 -98L446 -98Q447 -112 448 -135.5 449 -159 450.5 -188.5 452 -218 454 -253 456 -288 459 -325.5 462 -363 465 -402 468 -433 470.5 -464.5 473 -496 476 -527 479 -558 481.5 -589 484 -620 486.5 -651.5 489 -683 492 -714L575 -714 503 -0 406 -0 327 -328Q320 -358 315 -382.5 310 -407 307 -424.5 304 -442 302 -450L300 -450Q299 -442 296.5 -425 294 -408 289 -383.5 284 -359 277 -328L201 -0 105 -0 105 -0M912 10Q826 10 764 -22 702 -54 668.5 -115.5 635 -177 635 -266 635 -354 667 -416.5 699 -479 756 -512.5 813 -546 889 -546 959 -546 1009.5 -515 1060 -484 1087.5 -427.5 1115 -371 1115 -292L1115 -251 726 -251Q728 -181 752.5 -140 777 -99 819.5 -81.5 862 -64 918 -64 962 -64 1005 -76 1048 -88 1091 -108L1091 -28Q1045 -8 999 1 953 10 912 10L912 10M1025 -323Q1023 -370 1007 -403.5 991 -437 961.5 -455 932 -473 889 -473 822 -473 780.5 -432.5 739 -392 728 -323L1025 -323 1025 -323M1444 10Q1385 10 1344.5 -13.5 1304 -37 1281 -68L1275 -68 1267 -0 1195 -0 1195 -760 1282 -760 1282 -576Q1282 -548 1281.5 -521 1281 -494 1278 -466L1282 -466Q1303 -498 1343 -522 1383 -546 1444 -546 1492 -546 1532 -528.5 1572 -511 1600.5 -476 1629 -441 1644.5 -389 1660 -337 1660 -269 1660 -200 1644.5 -148 1629 -96 1600 -60.5 1571 -25 1531.5 -7.5 1492 10 1444 10L1444 10M1427 -63Q1500 -63 1534 -116 1568 -169 1568 -269 1568 -367 1534 -420 1500 -473 1426 -473 1357 -473 1319.5 -420.5 1282 -368 1282 -271 1282 -170 1317.5 -116.5 1353 -63 1427 -63L1427 -63M1939 10Q1889 10 1843.5 1 1798 -8 1765 -24L1765 -107Q1800 -91 1842.5 -77.5 1885 -64 1944 -64 2010 -64 2037.5 -84.5 2065 -105 2065 -144 2065 -165 2055.5 -178.5 2046 -192 2019 -206 1992 -220 1940 -242 1888 -265 1851 -285 1814 -305 1794 -332.5 1774 -360 1774 -403 1774 -451 1798.5 -482.5 1823 -514 1869.5 -530 1916 -546 1980 -546 2024 -546 2064 -538 2104 -530 2147 -512L2120 -442Q2080 -459 2046.5 -465 2013 -471 1980 -471 1918 -471 1889.5 -455 1861 -439 1861 -405 1861 -383 1873.5 -368 1886 -353 1914.5 -339 1943 -325 1990 -305 2043 -283 2080 -264 2117 -245 2136 -218.5 2155 -192 2155 -146 2155 -95 2130.5 -60.5 2106 -26 2058 -8 2010 10 1939 10L1939 10M2235 -0L2235 -60 2426 -75 2426 -461 2251 -474 2251 -536 2516 -536 2516 -75 2695 -60 2695 -0 2235 -0 2235 -0M2462 -633Q2436 -633 2417.5 -649 2399 -665 2399 -696 2399 -729 2417.5 -744.5 2436 -760 2462 -760 2488 -760 2506.5 -744.5 2525 -729 2525 -696 2525 -665 2506.5 -649 2488 -633 2462 -633L2462 -633M3097 10Q3040 10 2995 -5 2950 -20 2923.5 -58 2897 -96 2897 -163L2897 -461 2751 -461 2751 -523 2897 -539 2915 -679 2987 -679 2987 -536 3196 -536 3196 -461 2987 -461 2987 -180Q2987 -140 2998.5 -114 3010 -88 3036 -75.5 3062 -63 3103 -63 3129 -63 3159 -68 3189 -73 3211 -78L3211 -6Q3187 -0 3158 5 3129 10 3097 10L3097 10M3548 10Q3462 10 3400 -22 3338 -54 3304.5 -115.5 3271 -177 3271 -266 3271 -354 3303 -416.5 3335 -479 3392 -512.5 3449 -546 3525 -546 3595 -546 3645.5 -515 3696 -484 3723.5 -427.5 3751 -371 3751 -292L3751 -251 3362 -251Q3364 -181 3388.5 -140 3413 -99 3455.5 -81.5 3498 -64 3554 -64 3598 -64 3641 -76 3684 -88 3727 -108L3727 -28Q3681 -8 3635 1 3589 10 3548 10L3548 10M3661 -323Q3659 -370 3643 -403.5 3627 -437 3597.5 -455 3568 -473 3525 -473 3458 -473 3416.5 -432.5 3375 -392 3364 -323L3661 -323 3661 -323" />
</svg>